<svg width="650" height="650" viewBox="0 0 650 650" fill="none" xmlns="http://www.w3.org/2000/svg">
<path fill-rule="evenodd" clip-rule="evenodd" d="M326.826 0H0V372.578C3.19105 370.271 5.87121 367.787 5.87121 366.741C5.87121 363.337 13.0528 356.954 26.9263 347.805C34.5976 342.911 39.8205 338.443 38.8412 338.017C37.8619 337.592 35.5769 338.443 33.7815 339.72C31.8229 340.996 30.3539 341.635 30.3539 340.996C30.3539 340.571 38.1884 335.039 47.9814 329.081C77.3607 310.57 89.1124 302.698 89.1124 300.996C89.1124 300.145 86.1745 300.783 82.5837 302.485C78.8297 304.187 73.6067 305.464 70.6688 305.251C67.7308 305.251 60.0596 307.592 53.3676 310.783C46.6757 313.762 39.1677 316.315 36.5562 316.315C33.9447 316.315 29.8642 317.592 27.416 319.294C24.9677 320.783 21.2137 322.911 18.9286 323.549L14.8482 325.039L18.7654 320.996C26.1102 313.336 19.5815 309.932 8.31948 315.464C5.38155 316.953 5.38155 316.741 7.34017 313.549C8.48269 311.634 10.1149 310.358 10.7677 310.996C11.5838 311.634 12.7264 310.996 13.216 309.719C13.8689 308.656 15.3378 308.017 16.6436 308.656C17.9493 309.294 20.2344 308.443 21.8666 306.528C30.3539 296.741 35.7401 292.698 44.0642 289.294C49.124 287.379 53.2044 284.826 53.2044 283.975C53.2044 281.209 43.0849 282.06 36.0665 285.464C32.4757 287.166 27.0895 288.443 24.3148 288.655C20.0712 288.655 18.9286 287.804 18.9286 284.4C18.9286 281.634 20.0712 280.145 22.193 280.145C27.0895 280.145 38.5148 273.549 38.5148 270.783C38.5148 269.294 41.4527 266.102 45.0435 263.336C48.6343 260.783 51.5722 257.804 51.5722 256.74C51.5722 255.676 52.0619 253.336 52.5516 251.421C53.5309 248.017 53.2044 248.017 48.9608 250.995C44.0642 254.187 23.4987 263.123 20.8873 263.123C20.0712 263.123 17.1332 260.357 14.3585 257.166C6.68729 248.23 7.17695 240.57 15.6643 235.889C23.0091 231.846 23.662 228.868 18.7654 222.485C15.6643 218.442 15.5011 217.378 17.4597 212.272L17.4598 212.271C18.7655 209.293 20.0712 206.314 20.5608 205.676C20.8968 205.238 22.1548 203.097 23.8077 200.285C24.5638 198.998 25.4025 197.571 26.2735 196.101C28.8849 191.421 32.639 185.889 34.4344 183.974C37.8619 180.144 72.6274 157.378 82.5837 152.484C85.6848 150.995 93.6825 146.527 100.211 142.484L101.649 141.661C107.681 138.208 112.476 135.463 112.779 135.463C113.922 135.463 168.6 101.207 173.986 97.1645C181.331 91.4198 252.82 45.6748 297.705 18.015C301.459 15.6745 304.56 12.9085 304.56 11.8447C304.56 10.7809 306.355 9.9298 308.477 9.9298C309.978 9.9298 317.738 5.57789 326.826 0ZM0 466.752V650H147.934C149.317 648.922 150.846 648.233 152.278 648.233C154.236 648.233 156.032 647.594 156.032 646.531C156.032 645.679 157.664 643.765 159.786 642.062C163.05 639.296 163.213 639.296 161.255 642.488C159.623 644.828 159.623 646.105 161.092 647.169C162.071 648.02 163.377 647.807 164.029 646.318C164.682 645.041 168.436 643.126 172.517 642.062C184.921 638.871 188.675 636.105 188.675 630.147C188.675 623.764 188.675 623.764 180.351 629.296C171.211 635.254 170.558 632.913 179.535 626.105C183.616 623.126 187.206 619.722 187.696 618.871C189.002 616.105 173.333 616.53 168.926 619.722C166.314 621.424 162.56 622.701 160.112 622.701C156.685 622.701 156.032 621.637 156.032 616.53C156.032 611.849 157.664 608.658 162.397 603.764C165.825 600.147 169.905 597.168 171.537 597.168C173.006 597.168 178.556 593.977 183.616 589.934C188.839 585.892 194.878 582.062 196.999 581.211C201.733 579.296 214.79 569.509 214.79 568.019C214.79 567.381 212.995 567.381 210.71 567.807C208.425 568.445 206.629 568.019 206.629 567.168C206.629 563.764 202.059 565.041 199.774 568.87C197.979 572.062 195.531 574.19 186.717 579.721C185.901 580.147 185.411 579.509 185.411 578.445C185.411 577.381 187.043 575.892 189.002 575.253C190.96 574.402 192.103 573.339 191.45 572.487C190.308 570.998 179.372 576.53 172.517 582.062C170.395 583.764 167.131 585.679 165.335 585.892C163.54 586.317 161.092 587.594 159.949 588.87C158.806 590.147 157.011 590.573 156.195 589.934C155.216 589.083 151.788 590.573 148.36 592.913C142.648 596.956 142.158 596.956 141.179 593.551C140.526 591.424 140.689 588.658 141.342 587.594C143.138 584.615 140.363 576.104 137.098 574.402C134.65 573.126 119.634 578.232 113.432 582.275C109.841 584.615 103.149 582.062 102.333 578.019C102.234 577.504 102.105 576.872 101.965 576.181C101.641 574.591 101.255 572.694 101.027 571.211C100.538 569.083 101.517 567.381 103.639 566.317C105.434 565.679 108.209 561.636 109.841 557.381C111.31 553.126 116.533 545.891 121.756 540.785C130.08 533.125 130.896 531.636 129.101 528.232C127.142 524.827 126.326 524.827 118.981 527.806C105.924 533.125 96.6204 537.806 94.4986 540.147C93.3561 541.211 91.5607 541.849 90.4181 541.423C89.2756 540.785 91.2342 538.445 94.825 536.104C102.007 531.21 121.103 508.657 116.37 510.785C114.574 511.423 112.453 511.423 111.473 510.572C110.331 509.721 106.25 508.87 102.333 508.87C94.3354 508.87 92.0503 505.678 97.4365 502.487C102.17 499.721 101.68 496.317 96.4572 495.465C94.1721 495.04 92.3767 493.551 92.3767 492.061C92.3767 488.444 97.1101 483.125 101.843 481.423C103.802 480.572 105.434 479.082 105.434 478.019C105.434 476.742 103.802 476.742 101.843 477.806C99.7216 478.657 97.1101 479.082 95.9675 478.444C93.8457 477.593 110.494 463.125 113.758 463.125C114.574 463.125 115.227 462.487 115.227 461.423C115.227 460.572 119.961 456.529 125.836 452.486C136.282 445.04 139.547 441.21 133.181 443.337C127.632 445.252 129.427 442.699 139.71 434.401C149.013 426.742 150.809 422.699 144.933 422.699C143.464 422.699 145.423 420.146 149.503 417.167C153.583 414.188 157.174 410.997 157.664 410.146C158.154 409.082 160.765 406.741 163.703 404.827C166.478 402.912 169.416 400.358 169.905 399.082C172.027 395.039 169.252 394.401 164.846 398.231C162.397 400.146 161.091 400.784 161.581 399.507C162.234 398.231 161.908 397.167 161.092 397.167C160.112 397.167 159.296 398.231 159.296 399.507C159.296 400.784 158.154 401.209 156.685 400.571C155.216 399.933 152.115 400.997 149.829 403.124C147.381 405.252 140.2 409.72 133.834 412.912C127.469 416.103 120.124 421.635 117.676 425.252C114.738 429.295 112.779 430.571 111.963 429.082C110.657 426.316 96.6204 434.401 87.6434 442.912C84.5423 445.891 80.1354 448.231 77.5239 448.231C75.0756 448.231 71.9745 449.72 70.5055 451.423C69.1998 453.125 66.2619 454.614 63.9768 454.614C61.2021 454.614 59.7332 455.678 59.7332 458.018C59.7332 460.146 58.7538 460.997 57.4481 460.359C56.1423 459.721 54.347 460.359 53.3676 461.848C52.2251 463.763 48.9608 464.401 43.5746 463.55C37.8619 462.912 31.9861 464.189 22.8459 468.018C4.07581 475.891 2.93328 476.104 3.74937 471.636C4.36026 468.583 2.93879 466.938 0 466.752ZM165.45 650H168.765C168.701 649.853 168.646 649.69 168.6 649.509C168.11 647.807 167.294 647.807 165.662 649.722C165.588 649.818 165.518 649.91 165.45 650ZM173.411 650H244.707C245.831 648.253 248.597 645.929 251.841 643.977C261.471 638.445 265.388 633.977 265.388 628.445C265.388 625.254 264.572 624.615 261.797 625.679C259.675 626.53 254.779 628.02 250.698 629.084C246.618 629.935 241.232 631.85 238.783 633.126C236.172 634.403 225.726 635.467 215.606 635.467C200.753 635.467 195.041 636.318 187.859 639.935C182.963 642.275 178.882 645.041 178.882 645.892C178.882 646.531 176.76 648.445 173.986 649.722C173.788 649.82 173.596 649.913 173.411 650ZM246.179 650H253.15C252.891 648.409 251.787 648.233 249.556 648.233C247.316 648.233 246.214 648.727 246.179 650ZM414.734 650H422.934C422.478 649.951 422.064 649.858 421.751 649.722C420.608 649.084 421.424 648.658 423.709 648.658C425.994 648.658 426.81 649.084 425.831 649.722C425.465 649.858 425.016 649.951 424.541 650H437.097C438.109 648.99 439.182 648.079 440.031 647.594C445.095 645.119 445.403 646.244 440.804 650H650V475.631C648.824 475.536 648.857 475.267 650 474.562V464.109C648.918 465.636 646.522 467.38 644.87 467.38C644.054 467.167 644.706 465.891 646.339 464.189C647.788 462.815 649.238 461.995 650 462.066V448.451C646.835 451.633 643.413 455.236 642.095 456.955C640.626 458.869 635.893 462.274 631.486 464.401C627.242 466.316 619.734 470.359 615.001 473.125C610.267 475.678 605.697 478.019 604.881 478.019C603.902 478.019 603.249 478.87 603.249 480.146C603.249 481.071 603.249 481.687 603.554 481.953C604.161 482.484 605.977 481.632 611.409 479.083L611.41 479.082C624.631 472.912 626.1 477.168 614.348 487.168C608.962 491.636 608.309 492.912 610.92 492.912C612.879 492.912 615.654 491.21 617.286 489.295C618.918 486.955 622.835 485.678 627.568 485.465C631.975 485.253 637.035 483.551 639.973 480.997L644.87 476.955L642.258 482.274C639.81 487.38 628.548 495.678 605.697 509.295C604.146 510.2 602.125 511.371 599.805 512.715L599.792 512.723L599.782 512.729C592.829 516.757 583.204 522.333 575.502 526.955C565.219 533.125 550.856 541.423 543.674 545.466C521.314 558.232 503.033 570.36 502.38 573.126C501.401 577.381 507.766 576.317 511.031 571.636C512.663 569.296 515.927 567.381 518.376 567.381C520.824 567.381 523.762 565.892 524.904 564.402C527.189 560.785 542.532 553.551 544.001 555.466C544.654 556.104 544.001 556.743 542.858 556.743C541.716 556.743 536.33 560.36 530.78 564.828C525.231 569.296 518.212 574.19 515.111 575.679C512.213 577.071 507.89 579.392 505.072 580.905L505.065 580.908L505.059 580.911L505.056 580.913L505.041 580.921L505.036 580.924L505.033 580.926L505.03 580.927L505.027 580.929L505.024 580.931L504.502 581.211C501.891 582.7 496.994 584.615 493.893 585.466L488.18 586.743L492.261 582.487C494.546 580.147 495.852 577.807 495.362 577.168C494.219 575.466 478.387 586.53 478.714 588.658C479.04 589.722 476.265 592.7 472.675 595.254C469.084 598.02 466.146 600.786 466.146 601.637C466.146 605.892 470.063 605.466 477.082 599.934C481.978 596.317 484.1 595.466 482.794 597.594C480.183 601.849 481.815 607.381 484.59 603.764C486.711 600.998 491.118 600.573 489.976 603.339C488.344 606.53 473.817 615.041 470.39 614.615C468.757 614.615 463.698 616.743 459.454 619.722C455.047 622.488 451.456 623.977 451.456 622.701C451.456 621.637 452.109 620.573 453.089 620.573C453.905 620.573 454.231 619.296 453.741 617.594C453.252 615.892 455.047 613.339 458.638 611.211C461.902 609.296 464.514 606.317 464.514 604.615C464.514 600.36 464.187 600.36 453.089 607.807C442.479 614.828 440.194 617.807 444.111 619.722C445.907 620.786 446.233 621.849 444.928 623.764C443.622 625.892 443.785 626.743 446.07 627.381C448.192 628.02 447.376 629.296 442.806 631.85C439.378 633.764 435.298 635.254 433.829 635.041C427.3 634.403 425.015 635.467 425.994 638.871C426.81 641.637 426.158 642.062 423.056 640.999C420.771 640.36 418.486 640.573 417.997 641.85C417.507 642.913 417.997 643.977 419.139 643.977C420.282 644.19 419.466 645.467 417.344 646.956C415.645 648.202 414.775 649.177 414.734 650ZM650 437.3V426.886C648.072 428.224 646.09 429.082 644.706 429.082C642.585 429.082 640.789 429.508 640.789 429.933C640.789 430.359 640.299 432.274 639.81 433.976C639.157 436.529 640.463 437.167 646.502 437.167C647.806 437.167 648.972 437.211 650 437.3ZM650 275.942V251.728C649.444 252.117 648.876 252.512 648.297 252.91C640.299 258.442 640.136 258.655 644.87 259.081C647.971 259.293 648.624 259.719 646.828 260.357C645.196 260.996 644.217 262.698 644.706 264.187C645.196 265.889 641.768 268.868 634.913 272.698C629.201 275.889 624.467 279.294 624.467 280.357C624.467 281.421 623.162 282.911 621.693 283.762C610.104 289.081 599.821 297.166 604.555 297.166C605.534 297.166 612.389 293.975 619.897 289.932C627.828 285.729 639.899 280.191 650 275.942ZM650 240.802V237.74C647.567 239.666 646.343 240.937 646.828 241.208C647.331 241.426 648.52 241.253 650 240.802ZM650 41.8137C649.845 41.8343 649.712 41.8449 649.603 41.8449C646.665 41.8449 642.258 43.5471 625.61 50.7812C620.387 53.1216 612.716 55.2493 608.472 55.6748C592.803 57.5897 579.256 60.7813 569.789 65.0366C557.222 70.5686 553.794 70.7813 559.18 65.2494C561.465 62.9089 564.566 60.994 566.199 60.994C567.667 60.994 568.973 59.5047 568.973 57.8025C568.973 54.3982 564.077 53.5472 561.628 56.5259C560.649 57.5897 557.058 58.8663 553.468 59.5047C547.265 60.3557 538.615 63.76 532.739 67.5898C531.107 68.6537 527.353 69.5047 524.252 69.5047C521.314 69.5047 516.091 70.9941 512.989 72.6963C509.235 74.6112 506.787 75.0367 506.134 73.7601C505.645 72.4835 506.134 71.6324 507.277 71.6324C508.419 71.6324 510.378 69.7175 511.357 67.3771C512.5 65.2494 516.58 61.4196 520.334 59.0791L527.353 54.8238L519.355 56.1004L511.194 57.377L516.907 49.9301C520.008 45.8875 524.904 40.7811 527.842 38.6534C534.045 33.7598 535.024 28.015 529.474 30.3555C526.21 31.6321 526.047 31.4193 528.005 28.2278C529.148 26.3129 531.596 24.8235 533.228 24.8235C534.861 24.8235 536.819 23.5469 537.472 21.8448C538.125 20.3554 541.716 16.9511 545.307 14.6107C551.509 10.3553 550.366 8.44042 543.674 11.8447C541.879 12.9085 539.594 12.6958 538.451 11.6319C537.309 10.3553 533.229 10.3553 527.842 11.8447C518.049 14.1851 516.907 13.7596 520.661 8.86596C522.293 6.73829 522.946 3.54677 522.293 0.568024C522.262 0.377759 522.235 0.188362 522.213 0H650V41.8137ZM316.312 419.72C317.454 420.997 355.158 396.741 355.158 394.614C355.158 391.422 354.178 391.848 329.369 407.38C318.107 414.401 314.843 417.593 316.312 419.72ZM311.089 421.422C311.089 422.699 311.905 422.486 313.047 420.997C314.027 419.72 314.516 418.018 314.19 417.38C313.047 415.89 311.089 418.444 311.089 421.422ZM302.602 429.082C305.539 429.082 309.457 426.529 309.457 424.614C309.457 421.635 305.213 422.486 302.928 425.891C301.622 427.805 301.622 429.082 302.602 429.082ZM281.873 440.784C283.179 442.486 288.238 439.72 288.238 437.38C288.238 435.04 286.443 435.039 283.342 437.593C282.036 438.657 281.383 440.146 281.873 440.784ZM278.282 443.976C279.261 443.976 280.077 442.912 280.077 441.848C280.077 440.572 279.751 439.72 279.425 439.72C278.935 439.72 278.119 440.572 277.629 441.848C277.139 442.912 277.466 443.976 278.282 443.976ZM265.061 451.423C269.631 449.508 273.549 446.954 273.549 445.891C273.549 439.933 251.025 451.635 249.392 458.444C248.903 460.784 249.556 460.784 252.494 458.231C254.615 456.529 260.328 453.55 265.061 451.423ZM291.829 472.061C296.073 469.508 299.99 466.529 300.48 465.253C300.969 464.189 300.969 463.125 300.153 463.125C297.705 463.338 283.505 473.763 282.362 476.104C281.941 476.996 281.656 477.601 281.824 477.781C282.178 478.161 284.533 476.673 291.829 472.061L291.829 472.061ZM222.951 478.019C222.951 480.785 229.153 478.019 230.133 474.614C230.622 472.912 230.459 471.636 229.806 471.636C227.684 471.848 222.951 476.104 222.951 478.019ZM268.652 487.38C272.243 485.465 275.181 483.125 275.181 482.061C275.181 479.508 272.406 479.508 271.1 482.061C270.611 483.125 267.999 484.614 265.388 485.465C262.613 486.316 260.491 487.806 260.491 488.87C260.491 491.423 260.981 491.423 268.652 487.38ZM590.844 488.019C592.477 488.657 595.088 487.593 596.394 485.678C599.495 481.848 597.7 481.423 591.824 484.827C588.233 486.955 588.07 487.38 590.844 488.019ZM585.295 491.848C586.274 491.21 586.927 490.146 586.927 489.508C586.927 489.083 586.274 488.657 585.295 488.657C584.479 488.657 583.663 489.721 583.663 490.997C583.663 492.061 584.479 492.487 585.295 491.848ZM122.735 504.827C119.144 508.019 121.103 508.87 125.02 505.678C126.326 504.615 126.979 503.338 126.653 502.7C126.163 502.274 124.367 503.125 122.735 504.827ZM169.089 509.508C171.864 508.444 174.475 506.529 174.965 505.253C176.597 501.849 174.965 501.636 169.579 504.615C162.724 508.444 162.234 512.7 169.089 509.508ZM159.133 516.317C160.112 516.317 160.928 515.253 160.928 514.189C160.928 512.912 160.602 512.061 160.275 512.061C159.786 512.061 158.97 512.912 158.48 514.189C157.99 515.253 158.317 516.317 159.133 516.317ZM165.335 561.211C168.763 559.934 173.006 557.594 174.802 555.891C176.597 554.189 177.74 552.274 177.25 551.849C175.944 550.147 154.4 561.211 154.4 563.551C154.4 564.828 155.379 565.253 156.685 564.615C157.99 563.977 161.908 562.275 165.335 561.211ZM219.687 564.189C220.666 563.551 221.319 562.487 221.319 561.849C221.319 561.423 220.666 560.998 219.687 560.998C218.871 560.998 218.055 562.062 218.055 563.338C218.055 564.402 218.871 564.828 219.687 564.189ZM185.411 610.998C186.39 610.36 187.043 609.296 187.043 608.658C187.043 608.232 186.39 607.807 185.411 607.807C184.595 607.807 183.779 608.871 183.779 610.147C183.779 611.211 184.595 611.637 185.411 610.998ZM425.341 616.53C425.341 620.36 428.443 619.935 434.482 615.254C438.889 611.637 439.868 610.147 437.583 610.147C433.339 610.36 425.341 614.615 425.341 616.53ZM432.197 623.764C433.666 625.679 440.031 622.913 440.031 620.36C440.031 619.296 439.052 618.445 438.072 618.445C434.971 618.445 431.054 622.275 432.197 623.764ZM413.916 625.892C411.631 629.296 413.427 630.147 417.017 627.169C418.323 626.105 418.486 624.828 417.507 623.977C416.691 623.339 415.059 624.19 413.916 625.892ZM408.856 631.211C409.836 631.211 410.652 630.147 410.652 629.084C410.652 627.807 410.325 626.956 409.999 626.956C409.509 626.956 408.693 627.807 408.204 629.084C407.714 630.147 408.04 631.211 408.856 631.211ZM214.953 42.0578C224.257 37.3769 236.335 31.2066 241.721 28.2279C247.107 25.2491 252.167 22.6959 252.983 22.6959C255.595 22.6959 224.094 43.1216 217.238 46.1004C210.71 48.8663 197.163 56.9515 187.859 63.7601C178.882 70.3559 138.241 95.0369 136.446 95.0369C131.875 95.0369 143.79 85.4624 153.583 81.207C156.195 80.1432 156.358 79.5049 154.4 77.8027C152.604 76.1006 152.931 75.8878 155.869 76.9517C158.806 78.0155 159.459 77.8027 158.48 75.6751C157.501 73.9729 157.827 73.3346 159.623 74.1857C160.928 74.824 165.988 72.2708 170.721 68.2282C175.618 64.1856 180.351 60.9941 181.331 60.9941C182.147 60.9941 186.39 58.6537 190.471 55.6749C194.714 52.9089 205.65 46.7387 214.953 42.0578ZM103.312 453.763C102.823 454.401 101.354 454.614 100.211 453.976C98.9055 453.338 99.3951 452.699 101.191 452.699C102.986 452.487 103.965 453.125 103.312 453.763ZM626.099 475.678C624.631 475.678 625.447 474.402 627.732 472.699C633.118 468.657 635.729 468.657 631.649 472.699C630.017 474.402 627.405 475.678 626.099 475.678ZM35.2504 498.232C34.4344 498.87 33.6183 498.444 33.6183 497.38C33.6183 496.104 34.4344 495.04 35.2504 495.04C36.2298 495.04 36.8826 495.466 36.8826 495.891C36.8826 496.529 36.2298 497.593 35.2504 498.232ZM612.879 529.083L608.962 533.551L614.348 530.147C619.408 526.955 621.04 524.828 618.102 524.828C617.286 524.828 615.001 526.742 612.879 529.083ZM605.371 545.253C604.881 544.615 607.003 542.274 609.941 539.934C616.143 534.828 616.306 534.828 616.306 536.955C616.306 539.083 606.35 546.53 605.371 545.253ZM568.157 586.53C564.566 588.87 561.139 590.573 560.486 590.785C559.996 590.785 551.019 596.105 540.573 602.488C530.291 608.871 521.477 614.19 520.824 614.19C520.334 614.19 516.254 617.594 511.847 621.637C507.44 625.679 503.033 629.084 502.217 629.084C501.238 629.084 500.095 629.935 499.606 631.211C498.3 634.19 502.38 631.85 525.721 617.381C536.493 610.786 548.245 603.764 551.835 601.849C555.426 599.934 561.465 595.892 565.383 592.913L566.226 592.271L566.232 592.267C569.961 589.43 574.173 586.226 575.992 585.041C581.867 580.573 575.502 581.849 568.157 586.53ZM501.075 587.381C499.769 588.019 499.116 587.807 499.606 586.53C500.095 585.253 501.238 584.402 502.217 584.402C504.502 584.402 504.012 585.892 501.075 587.381ZM509.399 602.488C504.829 605.041 500.095 608.871 498.953 610.786C497.81 612.701 495.852 614.19 494.872 614.19C491.608 614.19 468.431 629.722 470.39 630.573C471.369 630.999 480.183 625.892 489.976 619.296C499.769 612.701 510.541 605.466 513.969 603.339C517.233 600.998 520.008 598.658 520.008 598.232C520.008 596.53 517.886 597.381 509.399 602.488ZM449.498 641.211C447.376 636.743 448.029 631.637 451.13 630.573C452.599 629.935 456.842 629.509 460.27 629.296C466.309 629.084 466.472 629.296 463.534 632.275C461.902 633.977 461.249 635.467 462.065 635.467C463.045 635.679 460.76 637.594 457.169 639.722C452.436 642.701 450.314 643.126 449.498 641.211ZM164.193 637.594C164.193 638.658 165.335 639.084 166.641 638.445C167.947 637.594 169.089 636.743 169.089 636.318C169.089 635.892 167.947 635.467 166.641 635.467C165.335 635.467 164.193 636.318 164.193 637.594ZM483.447 640.999C483.937 639.297 486.385 637.382 488.67 636.956C491.118 636.531 493.567 635.892 494.219 635.679C496.831 635.041 496.994 639.509 494.383 640.36C484.426 643.977 482.631 643.977 483.447 640.999ZM438.399 641.85C437.093 642.914 436.767 643.977 437.583 643.977C438.562 643.977 440.357 642.914 441.663 641.85C442.969 640.786 443.459 639.722 442.479 639.722C441.663 639.722 439.705 640.786 438.399 641.85ZM111.636 647.807C110.984 646.318 110.331 644.403 110.331 643.339C110.331 642.488 112.289 641.85 114.738 641.85C116.742 641.85 117.8 641.85 118.048 642.298C118.326 642.799 117.594 643.86 116.043 646.105C113.758 649.509 112.779 649.722 111.636 647.807ZM471.695 644.828C468.757 647.807 468.921 648.02 473.491 647.169C476.265 646.743 479.203 646.318 480.019 646.318C480.999 646.105 480.509 645.041 479.203 643.977C475.939 641.211 475.449 641.211 471.695 644.828Z" fill="#ffffff"/>
</svg>
